<svg xmlns="http://www.w3.org/2000/svg" xmlns:xlink="http://www.w3.org/1999/xlink" width="85" zoomAndPan="magnify" viewBox="0 0 63.75 30.000001" height="40" preserveAspectRatio="xMidYMid meet" version="1.0"><defs><g/></defs><g fill="#00bf63" fill-opacity="1"><g transform="translate(0.692435, 18.474436)"><g><path d="M 3.671875 -4.90625 L 3.671875 0 L 0.890625 0 L 0.890625 -12.21875 L 3.671875 -12.21875 L 3.671875 -7.34375 L 7.609375 -7.34375 L 7.609375 -12.21875 L 10.390625 -12.21875 L 10.390625 0 L 7.609375 0 L 7.609375 -4.90625 Z M 3.671875 -4.90625 "/></g></g></g><g fill="#00bf63" fill-opacity="1"><g transform="translate(11.551274, 18.474436)"><g><path d="M 1.140625 -11.828125 C 1.441406 -12.140625 1.804688 -12.296875 2.234375 -12.296875 C 2.660156 -12.296875 3.023438 -12.140625 3.328125 -11.828125 C 3.640625 -11.523438 3.796875 -11.160156 3.796875 -10.734375 C 3.796875 -10.316406 3.640625 -9.953125 3.328125 -9.640625 C 3.023438 -9.335938 2.660156 -9.1875 2.234375 -9.1875 C 1.804688 -9.1875 1.441406 -9.335938 1.140625 -9.640625 C 0.835938 -9.953125 0.6875 -10.316406 0.6875 -10.734375 C 0.6875 -11.160156 0.835938 -11.523438 1.140625 -11.828125 Z M 0.890625 -7.59375 L 0.890625 0 L 3.515625 0 L 3.515625 -7.59375 Z M 0.890625 -7.59375 "/></g></g></g><g fill="#00bf63" fill-opacity="1"><g transform="translate(15.59688, 18.474436)"><g/></g></g><g fill="#00bf63" fill-opacity="1"><g transform="translate(17.36392, 18.474436)"><g><path d="M 7.390625 -2.515625 C 7.816406 -2.515625 8.226562 -2.578125 8.625 -2.703125 C 9.03125 -2.835938 9.328125 -2.960938 9.515625 -3.078125 L 9.796875 -3.28125 L 10.96875 -0.90625 C 10.9375 -0.875 10.882812 -0.832031 10.8125 -0.78125 C 10.738281 -0.738281 10.578125 -0.648438 10.328125 -0.515625 C 10.078125 -0.378906 9.804688 -0.257812 9.515625 -0.15625 C 9.234375 -0.0625 8.859375 0.0195312 8.390625 0.09375 C 7.929688 0.175781 7.457031 0.21875 6.96875 0.21875 C 5.832031 0.21875 4.753906 -0.0546875 3.734375 -0.609375 C 2.710938 -1.171875 1.890625 -1.941406 1.265625 -2.921875 C 0.648438 -3.898438 0.34375 -4.957031 0.34375 -6.09375 C 0.34375 -6.945312 0.523438 -7.769531 0.890625 -8.5625 C 1.253906 -9.351562 1.738281 -10.03125 2.34375 -10.59375 C 2.957031 -11.15625 3.664062 -11.601562 4.46875 -11.9375 C 5.28125 -12.269531 6.113281 -12.4375 6.96875 -12.4375 C 7.75 -12.4375 8.472656 -12.34375 9.140625 -12.15625 C 9.804688 -11.96875 10.28125 -11.78125 10.5625 -11.59375 L 10.96875 -11.3125 L 9.796875 -8.953125 C 9.722656 -9.003906 9.613281 -9.070312 9.46875 -9.15625 C 9.332031 -9.238281 9.054688 -9.347656 8.640625 -9.484375 C 8.234375 -9.628906 7.816406 -9.703125 7.390625 -9.703125 C 6.722656 -9.703125 6.117188 -9.59375 5.578125 -9.375 C 5.046875 -9.15625 4.625 -8.867188 4.3125 -8.515625 C 4 -8.160156 3.757812 -7.773438 3.59375 -7.359375 C 3.4375 -6.953125 3.359375 -6.539062 3.359375 -6.125 C 3.359375 -5.1875 3.707031 -4.347656 4.40625 -3.609375 C 5.101562 -2.878906 6.097656 -2.515625 7.390625 -2.515625 Z M 7.390625 -2.515625 "/></g></g></g><g fill="#00bf63" fill-opacity="1"><g transform="translate(28.089429, 18.474436)"><g><path d="M 1.40625 -0.9375 C 0.695312 -1.71875 0.34375 -2.671875 0.34375 -3.796875 C 0.34375 -4.921875 0.695312 -5.875 1.40625 -6.65625 C 2.113281 -7.4375 3.019531 -7.828125 4.125 -7.828125 C 5.125 -7.828125 5.953125 -7.507812 6.609375 -6.875 L 6.609375 -7.59375 L 9.234375 -7.59375 L 9.234375 0 L 6.640625 0 L 6.640625 -0.859375 L 6.609375 -0.859375 C 5.953125 -0.140625 5.125 0.21875 4.125 0.21875 C 3.019531 0.21875 2.113281 -0.164062 1.40625 -0.9375 Z M 3.625 -5.078125 C 3.289062 -4.742188 3.125 -4.3125 3.125 -3.78125 C 3.125 -3.257812 3.285156 -2.832031 3.609375 -2.5 C 3.941406 -2.175781 4.375 -2.015625 4.90625 -2.015625 C 5.414062 -2.015625 5.835938 -2.179688 6.171875 -2.515625 C 6.503906 -2.847656 6.671875 -3.273438 6.671875 -3.796875 C 6.671875 -4.316406 6.5 -4.742188 6.15625 -5.078125 C 5.8125 -5.410156 5.394531 -5.578125 4.90625 -5.578125 C 4.394531 -5.578125 3.96875 -5.410156 3.625 -5.078125 Z M 3.625 -5.078125 "/></g></g></g><g fill="#00bf63" fill-opacity="1"><g transform="translate(37.777939, 18.474436)"><g><path d="M 0.890625 0 L 0.890625 -7.59375 L 3.515625 -7.59375 L 3.515625 -6.796875 L 3.546875 -6.796875 C 4.222656 -7.484375 4.945312 -7.828125 5.71875 -7.828125 C 6.269531 -7.828125 6.785156 -7.710938 7.265625 -7.484375 C 7.753906 -7.253906 8.125 -6.898438 8.375 -6.421875 C 9.144531 -7.359375 9.984375 -7.828125 10.890625 -7.828125 C 11.703125 -7.828125 12.394531 -7.597656 12.96875 -7.140625 C 13.550781 -6.679688 13.84375 -5.96875 13.84375 -5 L 13.84375 0 L 11.234375 0 L 11.234375 -4.296875 C 11.234375 -4.703125 11.117188 -5.039062 10.890625 -5.3125 C 10.671875 -5.582031 10.335938 -5.71875 9.890625 -5.71875 C 9.503906 -5.71875 9.207031 -5.597656 9 -5.359375 C 8.800781 -5.128906 8.695312 -4.851562 8.6875 -4.53125 L 8.6875 0 L 6.0625 0 L 6.0625 -4.296875 C 6.0625 -4.703125 5.945312 -5.039062 5.71875 -5.3125 C 5.5 -5.582031 5.164062 -5.71875 4.71875 -5.71875 C 4.320312 -5.71875 4.019531 -5.59375 3.8125 -5.34375 C 3.613281 -5.09375 3.515625 -4.789062 3.515625 -4.4375 L 3.515625 0 Z M 0.890625 0 "/></g></g></g><g fill="#00bf63" fill-opacity="1"><g transform="translate(51.94036, 18.474436)"><g><path d="M 8.703125 -6.65625 C 9.421875 -5.882812 9.78125 -4.9375 9.78125 -3.8125 C 9.78125 -2.6875 9.421875 -1.734375 8.703125 -0.953125 C 7.992188 -0.171875 7.09375 0.21875 6 0.21875 C 4.988281 0.21875 4.160156 -0.09375 3.515625 -0.71875 L 3.515625 3.84375 L 0.890625 3.84375 L 0.890625 -7.59375 L 3.484375 -7.59375 L 3.484375 -6.734375 L 3.515625 -6.734375 C 4.160156 -7.460938 4.988281 -7.828125 6 -7.828125 C 7.09375 -7.828125 7.992188 -7.4375 8.703125 -6.65625 Z M 6.46875 -2.515625 C 6.8125 -2.847656 6.984375 -3.273438 6.984375 -3.796875 C 6.984375 -4.328125 6.820312 -4.753906 6.5 -5.078125 C 6.175781 -5.410156 5.75 -5.578125 5.21875 -5.578125 C 4.695312 -5.578125 4.269531 -5.410156 3.9375 -5.078125 C 3.613281 -4.742188 3.453125 -4.320312 3.453125 -3.8125 C 3.453125 -3.28125 3.617188 -2.847656 3.953125 -2.515625 C 4.296875 -2.179688 4.71875 -2.015625 5.21875 -2.015625 C 5.71875 -2.015625 6.132812 -2.179688 6.46875 -2.515625 Z M 6.46875 -2.515625 "/></g></g></g></svg>